<svg xmlns="http://www.w3.org/2000/svg" viewBox="0 0 32 32">
  <!-- Background -->
  <rect width="32" height="32" rx="6" fill="#0F172A" />
  
  <!-- B shape base -->
  <path 
    d="M7 6H16C19 6 20.5 8 20.5 11C20.5 13 19 14.5 17.5 15C19.5 15.5 21 17.5 21 20.5C21 24 19 27 16 27H7V6Z" 
    fill="#FCD34D"
  />
  
  <!-- B cutouts -->
  <path 
    d="M11 15H16C16.5 15 17 14.5 17 14V11C17 10.5 16.5 10 16 10H11V15Z"
    fill="#0F172A"
  />
  
  <path 
    d="M11 23H16C16.5 23 17 22.5 17 22V19C17 18.5 16.5 18 16 18H11V23Z"
    fill="#0F172A"
  />
  
  <!-- Simplified Brain Symbol -->
  <path 
    d="M22 8C24.5 8 26 10 26 12C26 13.5 25 14.5 24 15C25 15.5 26 17 26 19C26 21.5 24 24 21.5 24"
    stroke="#F59E0B"
    stroke-width="2"
    stroke-linecap="round"
    fill="none"
  />
  
  <!-- Brain convolutions - simplified -->
  <path 
    d="M24 10.5C25 11.5 25 13 24 14M24 16.5C25 17.5 25 19 24 20"
    stroke="#F59E0B"
    stroke-width="1.5"
    stroke-linecap="round"
    fill="none"
  />
  
  <!-- Neural connection dots - larger -->
  <circle cx="24" cy="12" r="1.2" fill="#F59E0B" />
  <circle cx="24" cy="18" r="1.2" fill="#F59E0B" />
  <circle cx="22" cy="15" r="1.2" fill="#F59E0B" />
</svg> 